<svg display="none" xmlns="http://www.w3.org/2000/svg">
    <symbol id="arrow" viewBox="0 0 32 32">
        <g>
    <path d="M0 14.6855V17.3145C0 18.0402 0.220789 18.6598 0.662365 19.1733C1.10394 19.6868 1.67799 19.9435 2.38451 19.9435H18.7323L12.7609 25.982C12.2446 26.475 11.9864 27.0911 11.9864 27.8306C11.9864 28.57 12.2446 29.1861 12.7609 29.6791L14.2894 31.2401C14.7921 31.7467 15.4035 32 16.1236 32C16.8302 32 17.4484 31.7467 17.9783 31.2401L31.2459 17.8485C31.7486 17.3419 32 16.7257 32 16C32 15.288 31.7486 14.665 31.2459 14.1309L17.9783 0.780488C17.462 0.260163 16.8438 0 16.1236 0C15.4171 0 14.8057 0.260163 14.2894 0.780488L12.7609 2.30039C12.2446 2.82071 11.9864 3.44373 11.9864 4.16945C11.9864 4.89516 12.2446 5.51819 12.7609 6.03851L18.7323 12.0565H2.38451C1.67799 12.0565 1.10394 12.3132 0.662365 12.8267C0.220789 13.3402 0 13.9598 0 14.6855Z" fill="currentColor"/>
    
        </g>
    </symbol>
    <symbol id="shape" viewBox="0 0 19 14">
        <g>
            <path d="M0.976562 0.234619H16.9766L4.39077 12.8204C3.13084 14.0803 0.976562 13.188 0.976562 11.4062V0.234619Z" fill="currentColor"/>
        </g>
    </symbol>
    <symbol id="price" viewBox="0 0 333 210">
        <g>
            <path fill-rule="evenodd" clip-rule="evenodd" d="M15.4904 100.635C15.3758 100.467 15.262 100.298 15.1489 100.128C8.44556 90.0816 5.95425 78.3612 5.95425 66.5401C5.95425 57.1617 7.97475 48.1165 12.08 39.6713L12.1326 39.563L12.1865 39.4554C16.3892 31.0567 22.2401 23.8448 29.5386 17.9195L29.6607 17.8204L29.7842 17.7232C37.1158 11.9514 45.4744 7.64843 54.5709 4.61871C64.1476 1.42903 74.3967 0 85.0812 0C95.6281 0 105.768 1.4344 115.289 4.59687C124.493 7.60294 132.955 11.9146 140.265 17.8203C142.683 19.7332 144.944 21.79 147.035 23.9887C149.221 20.709 151.775 17.6789 154.691 14.9315C159.966 9.96236 166.106 6.31061 172.795 3.84035C179.763 1.21108 187.062 0.0159431 194.485 0.0159431C198.381 0.0159431 202.268 0.281841 206.052 0.927724C209.785 1.46796 213.505 2.36314 217.121 3.71786C220.845 5.11329 224.346 6.96503 227.589 9.24486C229.987 10.8647 232.229 12.6731 234.324 14.6233C239.524 9.81108 245.548 6.25933 252.098 3.84043C259.066 1.21111 266.365 0.0159431 273.788 0.0159431C277.684 0.0159431 281.571 0.281843 285.355 0.927732C289.089 1.46797 292.808 2.36315 296.424 3.71786C300.148 5.11329 303.649 6.96505 306.893 9.2449C309.905 11.2799 312.67 13.6126 315.21 16.1499C318.057 18.9952 320.527 22.1389 322.64 25.517C324.945 29.2022 326.726 33.149 328.111 37.177C329.581 41.4484 330.593 45.9517 331.268 50.5585C331.973 55.3744 332.279 60.4958 332.279 65.8293C332.279 74.9841 331.214 83.8151 328.86 92.1677L328.849 92.2052L328.838 92.2427C326.463 100.548 322.786 108.284 317.523 115.057C312.205 122.015 305.502 127.484 297.646 131.34C289.291 135.441 280.235 137.17 271.022 137.17C262.277 137.17 253.569 135.878 245.558 132.469C240.053 130.126 234.901 127.169 230.134 123.608C226.572 126.652 222.629 129.236 218.343 131.34C209.988 135.441 200.932 137.17 191.719 137.17C184.114 137.17 176.537 136.193 169.422 133.696C169.737 136.493 169.884 139.32 169.884 142.152C169.884 152.927 167.551 163.298 162.461 172.783C157.795 181.608 151.305 189.049 143.293 195.053L143.142 195.166L142.989 195.277C135.02 201.028 125.932 205.142 116.087 207.902C106.268 210.699 95.8887 212 85.0812 212C74.2477 212 63.8141 210.693 53.8919 207.917L53.6493 207.849L53.4083 207.775C43.8172 204.841 34.9744 200.67 27.173 195.04L27.02 194.93L26.869 194.817C19.0239 188.938 12.553 181.755 7.7389 173.28L7.57468 172.991L7.41973 172.696C2.57102 163.491 0.278809 153.492 0.278809 143.097C0.278809 130 3.09636 117.08 10.8327 106.313L10.861 106.273L10.8895 106.234C12.3179 104.265 13.8549 102.401 15.4904 100.635Z" fill="white"/>
            <path fill-rule="evenodd" clip-rule="evenodd" d="M144.697 163.085C148.007 156.941 149.663 150.01 149.663 142.291C149.663 132.367 147.298 124.491 142.568 118.663C137.997 112.677 131.454 107.479 122.941 103.068C129.405 99.1297 134.528 94.3252 138.312 88.6544C142.096 82.9835 143.987 75.6586 143.987 66.6797C143.987 60.3787 142.568 54.4715 139.731 48.9582C137.051 43.2873 133.109 38.404 127.907 34.3084C122.862 30.2128 116.714 26.9835 109.462 24.6207C102.367 22.2578 94.4849 21.0764 85.8141 21.0764C76.9856 21.0764 69.0242 22.2578 61.9299 24.6207C54.8356 26.9835 48.6872 30.2128 43.4847 34.3084C38.4399 38.404 34.4986 43.2873 31.6609 48.9582C28.9808 54.4715 27.6408 60.3787 27.6408 66.6797C27.6408 75.6586 29.5326 82.9835 33.3162 88.6544C37.0998 94.3252 42.2235 99.1297 48.6872 103.068C39.8587 107.163 33.1586 112.362 28.5867 118.663C24.1724 124.806 21.9653 132.997 21.9653 143.237C21.9653 150.483 23.5418 157.099 26.6949 163.085C30.0055 168.913 34.4986 173.954 40.174 178.207C45.8495 182.303 52.5497 185.532 60.2746 187.895C68.1571 190.1 76.6703 191.203 85.8141 191.203C94.9578 191.203 103.392 190.1 111.117 187.895C119 185.689 125.779 182.539 131.454 178.443C137.13 174.19 141.544 169.071 144.697 163.085ZM103.313 56.9919C107.412 60.93 109.462 65.4982 109.462 70.6966C109.462 76.6825 107.333 81.5658 103.077 85.3463C98.8203 89.1269 93.066 91.0172 85.8141 91.0172C78.5621 91.0172 72.8078 89.1269 68.5513 85.3463C64.2947 81.4082 62.1664 76.4462 62.1664 70.4603C62.1664 65.262 64.2158 60.7725 68.3148 56.9919C72.4137 53.0538 78.2468 51.0848 85.8141 51.0848C93.3813 51.0848 99.2144 53.0538 103.313 56.9919ZM106.388 125.279C111.748 128.744 114.428 133.785 114.428 140.401C114.428 146.387 111.905 151.349 106.86 155.287C101.816 159.225 94.8002 161.194 85.8141 161.194C76.8279 161.194 69.8125 159.225 64.7676 155.287C59.7228 151.349 57.2004 146.387 57.2004 140.401C57.2004 133.785 59.8804 128.744 65.2406 125.279C70.6007 121.656 77.4585 119.844 85.8141 119.844C94.1696 119.844 101.027 121.656 106.388 125.279ZM232.755 65.9688C232.755 73.514 231.877 80.4012 230.121 86.6304C228.365 92.7719 225.774 98.036 222.35 102.423C219.013 106.81 214.843 110.231 209.838 112.688C204.833 115.144 199.038 116.373 192.452 116.373C185.691 116.373 179.94 115.364 175.198 113.346C170.457 111.328 166.11 108.696 162.159 105.45L172.828 90.0521C176.164 92.7719 179.369 94.7898 182.442 96.1058C185.516 97.3341 189.028 97.9483 192.979 97.9483C198.686 97.9483 203.033 96.0181 206.018 92.1578C209.091 88.2974 210.979 83.2526 211.682 77.0234C209.399 78.9536 206.721 80.489 203.647 81.6295C200.574 82.7701 197.018 83.3404 192.979 83.3404C187.974 83.3404 183.452 82.6824 179.413 81.3663C175.374 79.9626 171.906 77.9885 169.008 75.4442C166.11 72.8999 163.871 69.7853 162.291 66.1004C160.798 62.4155 160.052 58.2043 160.052 53.4666C160.052 48.8166 160.886 44.5176 162.554 40.5695C164.31 36.6214 166.725 33.1997 169.798 30.3045C172.872 27.4092 176.559 25.172 180.862 23.5927C185.252 21.9258 190.038 21.0923 195.218 21.0923C198.291 21.0923 201.057 21.3116 203.516 21.7503C206.062 22.1013 208.389 22.6715 210.496 23.4611C212.604 24.2508 214.579 25.3036 216.423 26.6196C218.267 27.8479 220.067 29.3394 221.823 31.0941C223.492 32.7611 224.984 34.6474 226.301 36.753C227.618 38.8587 228.76 41.3152 229.726 44.1228C230.692 46.9303 231.438 50.1326 231.965 53.7298C232.492 57.3269 232.755 61.4066 232.755 65.9688ZM212.077 52.6769C212.077 48.4657 210.628 45.044 207.73 42.4119C204.921 39.7799 200.969 38.4639 195.877 38.4639C190.872 38.4639 187.008 39.7799 184.286 42.4119C181.564 44.9563 180.203 48.3341 180.203 52.5453C180.203 56.7566 181.608 60.1344 184.418 62.6788C187.316 65.2231 191.267 66.4952 196.272 66.4952C201.277 66.4952 205.14 65.2231 207.862 62.6788C210.672 60.0467 212.077 56.7128 212.077 52.6769ZM312.058 65.9688C312.058 73.514 311.18 80.4012 309.424 86.6304C307.668 92.7719 305.077 98.036 301.653 102.423C298.316 106.81 294.146 110.231 289.141 112.688C284.136 115.144 278.341 116.373 271.755 116.373C264.994 116.373 259.243 115.364 254.501 113.346C249.76 111.328 245.414 108.696 241.462 105.45L252.131 90.0521C255.467 92.7719 258.672 94.7898 261.745 96.1058C264.819 97.3341 268.331 97.9483 272.282 97.9483C277.989 97.9483 282.336 96.0181 285.321 92.1578C288.394 88.2974 290.282 83.2526 290.985 77.0234C288.702 78.9536 286.024 80.489 282.951 81.6295C279.877 82.7701 276.321 83.3404 272.282 83.3404C267.277 83.3404 262.755 82.6824 258.716 81.3663C254.677 79.9626 251.209 77.9885 248.311 75.4442C245.414 72.8999 243.174 69.7853 241.594 66.1004C240.101 62.4155 239.355 58.2043 239.355 53.4666C239.355 48.8166 240.189 44.5176 241.857 40.5695C243.614 36.6214 246.028 33.1997 249.101 30.3045C252.175 27.4092 255.862 25.172 260.165 23.5927C264.555 21.9258 269.341 21.0923 274.521 21.0923C277.594 21.0923 280.36 21.3116 282.819 21.7503C285.365 22.1013 287.692 22.6715 289.799 23.4611C291.907 24.2508 293.882 25.3036 295.726 26.6196C297.57 27.8479 299.37 29.3394 301.126 31.0941C302.795 32.7611 304.287 34.6474 305.604 36.753C306.921 38.8587 308.063 41.3152 309.029 44.1228C309.995 46.9303 310.741 50.1326 311.268 53.7298C311.795 57.3269 312.058 61.4066 312.058 65.9688ZM291.38 52.6769C291.38 48.4657 289.931 45.044 287.033 42.4119C284.224 39.7799 280.272 38.4639 275.18 38.4639C270.175 38.4639 266.311 39.7799 263.589 42.4119C260.867 44.9563 259.506 48.3341 259.506 52.5453C259.506 56.7566 260.911 60.1344 263.721 62.6788C266.619 65.2231 270.57 66.4952 275.575 66.4952C280.58 66.4952 284.443 65.2231 287.165 62.6788C289.975 60.0467 291.38 56.7128 291.38 52.6769Z" fill="#8FC641"/>
        </g>
    </symbol>
</svg>
